<svg width="74" height="41" viewBox="0 0 74 41" fill="none" xmlns="http://www.w3.org/2000/svg">
<path d="M0.0100002 19.58C0.0100002 19.553 0.0100002 19.525 0.0100002 19.497C0.0173336 19.343 0.027667 19.1893 0.0410004 19.036C0.0410004 18.99 0.0489995 18.944 0.0529995 18.898C0.0663328 18.7607 0.0813329 18.6243 0.0979996 18.489C0.107 18.419 0.117 18.348 0.128 18.278C0.139 18.208 0.148 18.145 0.159 18.078C0.574453 15.5183 1.76956 13.1492 3.58124 11.2938C5.39292 9.43847 7.73295 8.18729 10.282 7.711L49.146 0.448C50.5339 0.150149 51.9495 -2.03168e-05 53.369 2.06168e-09C53.797 2.06168e-09 54.222 0.0149998 54.644 0.0419998H54.662C54.833 0.0529998 55.003 0.0660003 55.172 0.0810003H55.221C55.3837 0.095667 55.5453 0.112333 55.706 0.131L55.767 0.138C55.927 0.157333 56.087 0.178334 56.247 0.201L56.304 0.209C56.47 0.233666 56.6367 0.26 56.804 0.288L56.838 0.294C57.3713 0.388 57.9003 0.502333 58.425 0.637L58.488 0.654C58.633 0.692 58.776 0.732 58.92 0.773L59.113 0.83L59.407 0.919L59.661 1.002L59.884 1.076C59.984 1.11 60.084 1.145 60.184 1.181L60.349 1.241C60.463 1.28367 60.5767 1.327 60.69 1.371L60.79 1.411C60.9233 1.463 61.0543 1.51667 61.183 1.572L61.199 1.579C64.1168 2.81578 66.7011 4.72436 68.7414 7.14925C70.7817 9.57414 72.2203 12.4467 72.94 15.533C72.94 15.545 72.946 15.557 72.948 15.569C72.977 15.695 73.005 15.823 73.031 15.95C73.042 15.999 73.052 16.05 73.062 16.099C73.0833 16.2057 73.104 16.3123 73.124 16.419C73.137 16.49 73.151 16.562 73.163 16.633C73.179 16.727 73.195 16.821 73.21 16.915C73.225 17.009 73.237 17.086 73.249 17.171C73.261 17.256 73.273 17.341 73.285 17.426C73.297 17.511 73.31 17.616 73.321 17.712C73.33 17.791 73.339 17.869 73.348 17.948C73.3587 18.0513 73.3687 18.1547 73.378 18.258C73.385 18.332 73.391 18.406 73.397 18.479C73.406 18.589 73.413 18.7 73.42 18.811C73.42 18.879 73.429 18.946 73.433 19.011C73.439 19.134 73.444 19.256 73.448 19.379C73.448 19.436 73.448 19.492 73.455 19.55C73.455 19.729 73.462 19.909 73.462 20.09C73.462 20.271 73.462 20.451 73.455 20.63C73.455 20.687 73.455 20.744 73.448 20.801C73.448 20.924 73.44 21.046 73.433 21.169C73.433 21.237 73.425 21.304 73.42 21.369C73.413 21.479 73.406 21.589 73.397 21.701C73.391 21.774 73.384 21.848 73.378 21.921C73.369 22.021 73.359 22.128 73.348 22.231C73.34 22.31 73.33 22.389 73.321 22.467C73.309 22.567 73.298 22.658 73.285 22.753C73.272 22.848 73.262 22.923 73.249 23.008C73.236 23.093 73.223 23.178 73.21 23.264C73.197 23.35 73.179 23.452 73.163 23.546C73.15 23.618 73.139 23.689 73.125 23.76C73.105 23.867 73.085 23.974 73.063 24.08L73.031 24.229C73.0043 24.3563 72.9767 24.4833 72.948 24.61L72.94 24.646C72.1259 28.1347 70.3951 31.3428 67.9263 33.9389C65.4576 36.5349 62.3404 38.4247 58.897 39.413L58.736 39.457L58.456 39.533L58.242 39.587L58.015 39.642L57.773 39.698L57.573 39.741L57.305 39.797L57.145 39.828C57.045 39.847 56.945 39.867 56.845 39.885L56.796 39.893C56.4013 39.9597 56.0013 40.016 55.596 40.062L55.538 40.069C55.413 40.083 55.287 40.093 55.16 40.106L55.094 40.112C54.9607 40.1233 54.829 40.1333 54.699 40.142H54.674C54.239 40.17 53.801 40.186 53.359 40.186C51.9395 40.1863 50.5239 40.0361 49.136 39.738L10.28 32.475C7.73154 31.9979 5.3923 30.7463 3.58137 28.8908C1.77044 27.0353 0.576012 24.6663 0.161 22.107C0.15 22.041 0.14 21.974 0.13 21.907C0.12 21.84 0.109 21.766 0.101 21.696C0.0829998 21.56 0.0680003 21.424 0.0550003 21.287C0.0550003 21.241 0.0470002 21.195 0.0430002 21.149C0.0300002 20.996 0.0190001 20.842 0.0120001 20.688C0.0120001 20.66 0.0120001 20.633 0.0120001 20.605C0.00500008 20.435 0 20.264 0 20.092C0 19.92 0.00300023 19.751 0.0100002 19.58ZM51.216 4.458C50.9693 4.49267 50.7223 4.53267 50.475 4.578L50.007 4.666C47.6704 5.17942 45.4804 6.21515 43.6012 7.69555C41.7219 9.17595 40.2022 11.0626 39.156 13.214L48.241 16.166C49.0032 15.1731 50.0364 14.4219 51.216 14.003V4.458ZM61.59 6.619L61.433 6.525C61.2917 6.441 61.1487 6.35867 61.004 6.278C60.9213 6.232 60.8383 6.187 60.755 6.143L60.46 5.989C60.337 5.927 60.214 5.867 60.09 5.809C60.028 5.78 59.967 5.75 59.904 5.722C59.744 5.64867 59.5823 5.57833 59.419 5.511L59.281 5.454C59.1017 5.38067 58.9217 5.31167 58.741 5.247L58.679 5.225C58.267 5.07833 57.85 4.94833 57.428 4.835C56.8031 4.66961 56.1685 4.54303 55.528 4.456V14.003C56.7061 14.422 57.7379 15.1729 58.499 16.165L67.581 13.213C66.2532 10.489 64.1746 8.20117 61.59 6.619ZM68.746 23.68C68.746 23.669 68.752 23.657 68.754 23.646C68.777 23.546 68.798 23.446 68.818 23.351C68.827 23.311 68.835 23.27 68.842 23.228C68.859 23.146 68.875 23.063 68.89 22.979C68.901 22.922 68.911 22.865 68.921 22.808C68.933 22.735 68.945 22.662 68.957 22.589C68.969 22.516 68.978 22.453 68.988 22.389C68.998 22.325 69.007 22.256 69.016 22.189C69.025 22.122 69.035 22.038 69.044 21.963C69.053 21.888 69.058 21.84 69.065 21.778C69.073 21.697 69.081 21.615 69.089 21.534C69.089 21.476 69.1 21.419 69.105 21.362C69.112 21.275 69.117 21.188 69.123 21.1C69.123 21.047 69.131 20.995 69.133 20.942C69.139 20.842 69.142 20.748 69.145 20.652C69.145 20.608 69.145 20.563 69.145 20.518C69.145 20.377 69.151 20.235 69.151 20.094C69.151 19.953 69.151 19.811 69.145 19.669C69.145 19.625 69.145 19.58 69.145 19.535C69.145 19.435 69.138 19.341 69.133 19.245C69.133 19.192 69.126 19.14 69.123 19.087C69.117 18.999 69.112 18.912 69.105 18.825C69.105 18.767 69.094 18.71 69.089 18.654C69.081 18.572 69.074 18.491 69.064 18.41C69.058 18.348 69.05 18.287 69.043 18.225C69.036 18.163 69.025 18.074 69.015 17.999C69.005 17.924 68.997 17.866 68.987 17.799C68.977 17.732 68.967 17.663 68.956 17.599C68.945 17.535 68.932 17.453 68.92 17.38C68.92 17.356 68.911 17.333 68.907 17.31L59.821 20.262C59.791 21.5125 59.3961 22.7269 58.685 23.756L64.297 31.479C66.5034 29.3646 68.0488 26.6554 68.746 23.68ZM50.007 35.52L50.475 35.608C53.0326 36.0885 55.6693 35.9285 58.15 35.142L58.208 35.123C58.315 35.089 58.422 35.053 58.528 35.016L58.646 34.974L58.898 34.882L59.061 34.82L59.261 34.742L59.461 34.659L59.595 34.601C59.68 34.564 59.766 34.527 59.851 34.488L59.888 34.471C60.204 34.327 60.5147 34.173 60.82 34.009L55.208 26.286C54.008 26.6433 52.73 26.6433 51.53 26.286L45.917 34.009C47.2033 34.7008 48.5799 35.2094 50.007 35.52ZM42.438 31.476L48.049 23.754C47.3376 22.7246 46.9424 21.5099 46.912 20.259L37.826 17.307C37.3686 19.8659 37.5502 22.4982 38.3548 24.97C39.1593 27.4418 40.562 29.6767 42.438 31.476ZM20.01 29.916L38.256 33.325C35.0425 29.6659 33.2703 24.9624 33.2703 20.0925C33.2703 15.2226 35.0425 10.5191 38.256 6.86L20.005 10.27C21.508 11.4284 22.725 12.9162 23.5625 14.619C24.4 16.3217 24.8354 18.1939 24.8354 20.0915C24.8354 21.9891 24.4 23.8613 23.5625 25.564C22.725 27.2668 21.508 28.7546 20.005 29.913L20.01 29.916Z" fill="black"/>
</svg>
