<svg width="100" height="41" xmlns="http://www.w3.org/2000/svg" fill="none">

 <g>
  <title>Layer 1</title>
  <path stroke="#000000" id="svg_1" fill="#ffffff" d="m1.01,20.58c0,-0.027 0,-0.055 0,-0.083c0.00733,-0.154 0.01767,-0.3077 0.031,-0.461c0,-0.046 0.008,-0.092 0.012,-0.138c0.01333,-0.1373 0.02833,-0.2737 0.045,-0.409c0.009,-0.07 0.019,-0.141 0.03,-0.211c0.011,-0.07 0.02,-0.133 0.031,-0.2c0.41545,-2.5597 1.61056,-4.9288 3.42224,-6.7842c1.81168,-1.85533 4.15171,-3.10651 6.70076,-3.5828l38.864,-7.263c1.3879,-0.29785 2.8035,-0.44802 4.223,-0.448c0.428,0 0.853,0.015 1.275,0.042l0.018,0c0.171,0.011 0.341,0.024 0.51,0.039l0.049,0c0.1627,0.01467 0.3243,0.03133 0.485,0.05l0.061,0.007c0.16,0.01933 0.32,0.04033 0.48,0.063l0.057,0.008c0.166,0.02467 0.3327,0.051 0.5,0.079l0.034,0.006c0.5333,0.094 1.0623,0.20833 1.587,0.343l0.063,0.017c0.145,0.038 0.288,0.078 0.432,0.119l0.193,0.057l0.294,0.089l0.254,0.083l0.223,0.074c0.1,0.034 0.2,0.069 0.3,0.105l0.165,0.06c0.114,0.04267 0.2277,0.086 0.341,0.13l0.1,0.04c0.1333,0.052 0.2643,0.10567 0.393,0.161l0.016,0.007c2.9178,1.23678 5.5021,3.14536 7.5424,5.57025c2.0403,2.42489 3.4789,5.29745 4.1986,8.38375c0,0.012 0.006,0.024 0.008,0.036c0.029,0.126 0.057,0.254 0.083,0.381c0.011,0.049 0.021,0.1 0.031,0.149c0.0213,0.1067 0.042,0.2133 0.062,0.32c0.013,0.071 0.027,0.143 0.039,0.214c0.016,0.094 0.032,0.188 0.047,0.282c0.015,0.094 0.027,0.171 0.039,0.256c0.012,0.085 0.024,0.17 0.036,0.255c0.012,0.085 0.025,0.19 0.036,0.286c0.009,0.079 0.018,0.157 0.027,0.236c0.0107,0.1033 0.0207,0.2067 0.03,0.31c0.007,0.074 0.013,0.148 0.019,0.221c0.009,0.11 0.016,0.221 0.023,0.332c0,0.068 0.009,0.135 0.013,0.2c0.006,0.123 0.011,0.245 0.015,0.368c0,0.057 0,0.113 0.007,0.171c0,0.179 0.007,0.359 0.007,0.54c0,0.181 0,0.361 -0.007,0.54c0,0.057 0,0.114 -0.007,0.171c0,0.123 -0.008,0.245 -0.015,0.368c0,0.068 -0.008,0.135 -0.013,0.2c-0.007,0.11 -0.014,0.22 -0.023,0.332c-0.006,0.073 -0.013,0.147 -0.019,0.22c-0.009,0.1 -0.019,0.207 -0.03,0.31c-0.008,0.079 -0.018,0.158 -0.027,0.236c-0.012,0.1 -0.023,0.191 -0.036,0.286c-0.013,0.095 -0.023,0.17 -0.036,0.255c-0.013,0.085 -0.026,0.17 -0.039,0.256c-0.013,0.086 -0.031,0.188 -0.047,0.282c-0.013,0.072 -0.024,0.143 -0.038,0.214c-0.02,0.107 -0.04,0.214 -0.062,0.32l-0.032,0.149c-0.0267,0.1273 -0.0543,0.2543 -0.083,0.381l-0.008,0.036c-0.8141,3.4887 -2.5449,6.6968 -5.0137,9.2929c-2.4687,2.596 -5.5859,4.4858 -9.0293,5.4741l-0.161,0.044l-0.28,0.076l-0.214,0.054l-0.227,0.055l-0.242,0.056l-0.2,0.043l-0.268,0.056l-0.16,0.031c-0.1,0.019 -0.2,0.039 -0.3,0.057l-0.049,0.008c-0.3947,0.0667 -0.7947,0.123 -1.2,0.169l-0.058,0.007c-0.125,0.014 -0.251,0.024 -0.378,0.037l-0.066,0.006c-0.1333,0.0113 -0.265,0.0213 -0.395,0.03l-0.025,0c-0.435,0.028 -0.873,0.044 -1.315,0.044c-1.4195,0.0003 -2.8351,-0.1499 -4.223,-0.448l-38.856,-7.263c-2.54846,-0.4771 -4.8877,-1.7287 -6.69863,-3.5842c-1.81093,-1.8555 -3.00536,-4.2245 -3.42037,-6.7838c-0.011,-0.066 -0.021,-0.133 -0.031,-0.2c-0.01,-0.067 -0.021,-0.141 -0.029,-0.211c-0.018,-0.136 -0.033,-0.272 -0.046,-0.409c0,-0.046 -0.008,-0.092 -0.012,-0.138c-0.013,-0.153 -0.024,-0.307 -0.031,-0.461c0,-0.028 0,-0.055 0,-0.083c-0.007,-0.17 -0.012,-0.341 -0.012,-0.513c0,-0.172 0.003,-0.341 0.01,-0.512zm51.206,-15.122c-0.2467,0.03467 -0.4937,0.07467 -0.741,0.12l-0.468,0.088c-2.3366,0.51342 -4.5266,1.54915 -6.4058,3.02955c-1.8793,1.4804 -3.399,3.36705 -4.4452,5.51845l9.085,2.952c0.7622,-0.9929 1.7954,-1.7441 2.975,-2.163l0,-9.545zm10.374,2.161l-0.157,-0.094c-0.1413,-0.084 -0.2843,-0.16633 -0.429,-0.247c-0.0827,-0.046 -0.1657,-0.091 -0.249,-0.135l-0.295,-0.154c-0.123,-0.062 -0.246,-0.122 -0.37,-0.18c-0.062,-0.029 -0.123,-0.059 -0.186,-0.087c-0.16,-0.07333 -0.3217,-0.14367 -0.485,-0.211l-0.138,-0.057c-0.1793,-0.07333 -0.3593,-0.14233 -0.54,-0.207l-0.062,-0.022c-0.412,-0.14667 -0.829,-0.27667 -1.251,-0.39c-0.6249,-0.16539 -1.2595,-0.29197 -1.9,-0.379l0,9.547c1.1781,0.419 2.2099,1.1699 2.971,2.162l9.082,-2.952c-1.3278,-2.724 -3.4064,-5.01183 -5.991,-6.594zm7.156,17.061c0,-0.011 0.006,-0.023 0.008,-0.034c0.023,-0.1 0.044,-0.2 0.064,-0.295c0.009,-0.04 0.017,-0.081 0.024,-0.123c0.017,-0.082 0.033,-0.165 0.048,-0.249c0.011,-0.057 0.021,-0.114 0.031,-0.171c0.012,-0.073 0.024,-0.146 0.036,-0.219c0.012,-0.073 0.021,-0.136 0.031,-0.2c0.01,-0.064 0.019,-0.133 0.028,-0.2c0.009,-0.067 0.019,-0.151 0.028,-0.226c0.009,-0.075 0.014,-0.123 0.021,-0.185c0.008,-0.081 0.016,-0.163 0.024,-0.244c0,-0.058 0.011,-0.115 0.016,-0.172c0.007,-0.087 0.012,-0.174 0.018,-0.262c0,-0.053 0.008,-0.105 0.01,-0.158c0.006,-0.1 0.009,-0.194 0.012,-0.29c0,-0.044 0,-0.089 0,-0.134c0,-0.141 0.006,-0.283 0.006,-0.424c0,-0.141 0,-0.283 -0.006,-0.425c0,-0.044 0,-0.089 0,-0.134c0,-0.1 -0.007,-0.194 -0.012,-0.29c0,-0.053 -0.007,-0.105 -0.01,-0.158c-0.006,-0.088 -0.011,-0.175 -0.018,-0.262c0,-0.058 -0.011,-0.115 -0.016,-0.171c-0.008,-0.082 -0.015,-0.163 -0.025,-0.244c-0.006,-0.062 -0.014,-0.123 -0.021,-0.185c-0.007,-0.062 -0.018,-0.151 -0.028,-0.226c-0.01,-0.075 -0.018,-0.133 -0.028,-0.2c-0.01,-0.067 -0.02,-0.136 -0.031,-0.2c-0.011,-0.064 -0.024,-0.146 -0.036,-0.219c0,-0.024 -0.009,-0.047 -0.013,-0.07l-9.086,2.952c-0.03,1.2505 -0.4249,2.4649 -1.136,3.494l5.612,7.723c2.2064,-2.1144 3.7518,-4.8236 4.449,-7.799zm-18.739,11.84l0.468,0.088c2.5576,0.4805 5.1943,0.3205 7.675,-0.466l0.058,-0.019c0.107,-0.034 0.214,-0.07 0.32,-0.107l0.118,-0.042l0.252,-0.092l0.163,-0.062l0.2,-0.078l0.2,-0.083l0.134,-0.058c0.085,-0.037 0.171,-0.074 0.256,-0.113l0.037,-0.017c0.316,-0.144 0.6267,-0.298 0.932,-0.462l-5.612,-7.723c-1.2,0.3573 -2.478,0.3573 -3.678,0l-5.613,7.723c1.2863,0.6918 2.6629,1.2004 4.09,1.511zm-7.569,-4.044l5.611,-7.722c-0.7114,-1.0294 -1.1066,-2.2441 -1.137,-3.495l-9.086,-2.952c-0.4574,2.5589 -0.2758,5.1912 0.5288,7.663c0.8045,2.4718 2.2072,4.7067 4.0832,6.506zm-22.428,-1.56l18.246,3.409c-3.2135,-3.6591 -4.9857,-8.3626 -4.9857,-13.2325c0,-4.8699 1.7722,-9.5734 4.9857,-13.2325l-18.251,3.41c1.503,1.1584 2.72,2.6462 3.5575,4.349c0.8375,1.7027 1.2729,3.5749 1.2729,5.4725c0,1.8976 -0.4354,3.7698 -1.2729,5.4725c-0.8375,1.7028 -2.0545,3.1906 -3.5575,4.349l0.005,0.003z"/>
 </g>
</svg>